<svg width="225" height="893" viewBox="0 0 225 893" fill="none" xmlns="http://www.w3.org/2000/svg">
<rect width="225" height="893" fill="white"/>
<rect width="199" height="49" transform="translate(13 19)" fill="#969696"/>
<path d="M177.125 36H179.875M179.875 36H201.875M179.875 36V54.6667C179.875 55.3739 180.165 56.0522 180.68 56.5523C181.196 57.0524 181.896 57.3333 182.625 57.3333H196.375C197.104 57.3333 197.804 57.0524 198.32 56.5523C198.835 56.0522 199.125 55.3739 199.125 54.6667V36M184 36V33.3333C184 32.6261 184.29 31.9478 184.805 31.4477C185.321 30.9476 186.021 30.6667 186.75 30.6667H192.25C192.979 30.6667 193.679 30.9476 194.195 31.4477C194.71 31.9478 195 32.6261 195 33.3333V36M186.75 42.6667V50.6667M192.25 42.6667V50.6667" stroke="#1E1E1E" stroke-width="4" stroke-linecap="round" stroke-linejoin="round"/>
</svg>
