<svg width="28" height="39" viewBox="0 0 28 39" fill="none" xmlns="http://www.w3.org/2000/svg">
<path d="M14 2H8.16667C6.61957 2 5.13584 2.61458 4.04188 3.70854C2.94792 4.80251 2.33333 6.28624 2.33333 7.83333C2.33333 9.38043 2.94792 10.8642 4.04188 11.9581C5.13584 13.0521 6.61957 13.6667 8.16667 13.6667M14 2V13.6667M14 2H19.8333C20.5994 2 21.3579 2.15088 22.0657 2.44404C22.7734 2.73719 23.4164 3.16687 23.9581 3.70854C24.4998 4.25022 24.9295 4.89328 25.2226 5.60101C25.5158 6.30875 25.6667 7.06729 25.6667 7.83333C25.6667 8.59938 25.5158 9.35792 25.2226 10.0657C24.9295 10.7734 24.4998 11.4164 23.9581 11.9581C23.4164 12.4998 22.7734 12.9295 22.0657 13.2226C21.3579 13.5158 20.5994 13.6667 19.8333 13.6667M14 13.6667H8.16667M14 13.6667H19.8333M14 13.6667V25.3333M8.16667 13.6667C6.61957 13.6667 5.13584 14.2812 4.04188 15.3752C2.94792 16.4692 2.33333 17.9529 2.33333 19.5C2.33333 21.0471 2.94792 22.5308 4.04188 23.6248C5.13584 24.7188 6.61957 25.3333 8.16667 25.3333M19.8333 13.6667C19.0673 13.6667 18.3087 13.8175 17.601 14.1107C16.8933 14.4039 16.2502 14.8335 15.7085 15.3752C15.1669 15.9169 14.7372 16.5599 14.444 17.2677C14.1509 17.9754 14 18.734 14 19.5C14 20.266 14.1509 21.0246 14.444 21.7323C14.7372 22.4401 15.1669 23.0831 15.7085 23.6248C16.2502 24.1665 16.8933 24.5961 17.601 24.8893C18.3087 25.1824 19.0673 25.3333 19.8333 25.3333C20.5994 25.3333 21.3579 25.1824 22.0657 24.8893C22.7734 24.5961 23.4164 24.1665 23.9581 23.6248C24.4998 23.0831 24.9295 22.4401 25.2226 21.7323C25.5158 21.0246 25.6667 20.266 25.6667 19.5C25.6667 18.734 25.5158 17.9754 25.2226 17.2677C24.9295 16.5599 24.4998 15.9169 23.9581 15.3752C23.4164 14.8335 22.7734 14.4039 22.0657 14.1107C21.3579 13.8175 20.5994 13.6667 19.8333 13.6667ZM8.16667 25.3333C6.61957 25.3333 5.13584 25.9479 4.04188 27.0419C2.94792 28.1358 2.33333 29.6196 2.33333 31.1667C2.33333 32.7138 2.94792 34.1975 4.04188 35.2915C5.13584 36.3854 6.61957 37 8.16667 37C9.71376 37 11.1975 36.3854 12.2915 35.2915C13.3854 34.1975 14 32.7138 14 31.1667V25.3333M8.16667 25.3333H14" stroke="#F3F3F3" stroke-width="3.5" stroke-linecap="round" stroke-linejoin="round"/>
</svg>
